<svg xmlns="http://www.w3.org/2000/svg" width="256" height="256" viewBox="0 0 256 256" version="1.1">
	<path d="M 106.597 1.536 C 90.254 4.633, 70.962 12.647, 58.406 21.555 C 43.361 32.229, 33.614 48.200, 31.583 65.508 C 30.741 72.682, 32.687 86.269, 35.577 93.390 C 43.700 113.405, 58.551 125.691, 77.725 128.257 C 87.069 129.507, 107.418 128.285, 123 125.538 C 166.309 117.903, 179.469 118.023, 186.598 126.118 C 189.707 129.648, 192 136.387, 192 141.993 C 192 150.942, 185.625 159.244, 173.140 166.552 C 159.826 174.346, 148.289 177.986, 136.876 177.994 C 124.333 178.004, 117.728 174.628, 109.861 164.187 C 107.504 161.059, 105.496 158.362, 105.398 158.193 C 105.217 157.881, 96.323 161.319, 76.500 169.364 C 68.759 172.506, 65.581 174.272, 65.773 175.324 C 66.424 178.889, 73.960 190.750, 79.233 196.509 C 85.797 203.677, 92.025 207.966, 101.130 211.589 C 118.656 218.562, 139.721 218.636, 162.500 211.805 C 170.785 209.320, 191.024 199.407, 199.500 193.682 C 220.660 179.390, 231.976 159.988, 231.976 138 C 231.976 115.445, 218.567 93.083, 199.697 84.167 C 185.969 77.680, 171.575 77.541, 129.500 83.484 C 92.502 88.711, 84.886 88.578, 78.153 82.588 C 75.051 79.829, 72.208 74.152, 71.401 69.108 C 70.879 65.845, 71.284 63.940, 73.431 59.552 C 79.856 46.419, 100.078 36.133, 119.661 36.036 C 129.400 35.987, 136.612 38.809, 142.306 44.896 C 144.686 47.440, 147.138 50.417, 147.754 51.511 C 148.866 53.486, 148.922 53.484, 155.449 51.224 C 169.846 46.240, 186 39.492, 186 38.462 C 186 37.050, 177.563 24.353, 174.141 20.615 C 170.228 16.341, 160.415 9.278, 155.134 6.935 C 141.513 0.892, 121.652 -1.317, 106.597 1.536" stroke="none" fill="#4ecac2" fill-rule="evenodd"/>
</svg>